<?xml version="1.0" encoding="UTF-8" standalone="no"?>
<svg width="20px" height="20px" viewBox="0 0 20 20" version="1.1" xmlns="http://www.w3.org/2000/svg" xmlns:xlink="http://www.w3.org/1999/xlink" xmlns:sketch="http://www.bohemiancoding.com/sketch/ns">
    <!-- Generator: Sketch 3.4.4 (17249) - http://www.bohemiancoding.com/sketch -->
    <title>CPU</title>
    <desc>Created with Sketch.</desc>
    <defs></defs>
    <g id="Page-1" stroke="none" stroke-width="1" fill="none" fill-rule="evenodd" sketch:type="MSPage">
        <g id="CPU" sketch:type="MSArtboardGroup" fill="#B5BCD1">
            <g id="memory" sketch:type="MSLayerGroup" transform="translate(1.000000, 1.000000)">
                <path d="M18,6 L16,6 L16,4 C16,2.9 15.1,2 14,2 L12,2 L12,0 L10,0 L10,2 L8,2 L8,0 L6,0 L6,2 L4,2 C2.9,2 2,2.9 2,4 L2,6 L0,6 L0,8 L2,8 L2,10 L0,10 L0,12 L2,12 L2,14 C2,15.1 2.9,16 4,16 L6,16 L6,18 L8,18 L8,16 L10,16 L10,18 L12,18 L12,16 L14,16 C15.1,16 16,15.1 16,14 L16,12 L18,12 L18,10 L16,10 L16,8 L16.9880371,8 L18,8 L18,6 Z M14,14 L4,14 L4,4 L14,4 L14,14 L14,14 Z" id="Shape" sketch:type="MSShapeGroup"></path>
            </g>
        </g>
    </g>
</svg>