<?xml version="1.0" encoding="UTF-8" standalone="no"?>
<svg width="20px" height="20px" viewBox="0 0 20 20" version="1.1" xmlns="http://www.w3.org/2000/svg" xmlns:xlink="http://www.w3.org/1999/xlink" xmlns:sketch="http://www.bohemiancoding.com/sketch/ns">
    <!-- Generator: Sketch 3.4.4 (17249) - http://www.bohemiancoding.com/sketch -->
    <title>Operating name</title>
    <desc>Created with Sketch.</desc>
    <defs></defs>
    <g id="Page-1" stroke="none" stroke-width="1" fill="none" fill-rule="evenodd" sketch:type="MSPage">
        <g id="Operating-name" sketch:type="MSArtboardGroup" fill="#B5BCD1">
            <g id="adb" sketch:type="MSLayerGroup" transform="translate(5.000000, 1.000000)">
                <path d="M0,12.2727273 C0,15.4636364 2.53636364,18 5.72727273,18 C8.91818182,18 11.4545455,15.4636364 11.4545455,12.2727273 L11.4545455,9 L0,9 L0,12.2727273 L0,12.2727273 Z M9.08181818,2.78181818 L10.8,1.06363636 L10.1454545,0.409090909 L8.26363636,2.29090909 C7.52727273,1.88181818 6.62727273,1.63636364 5.72727273,1.63636364 C4.82727273,1.63636364 3.92727273,1.88181818 3.19090909,2.20909091 L1.30909091,0.327272727 L0.654545455,1.06363636 L2.37272727,2.78181818 C0.9,3.76363636 0,5.48181818 0,7.36363636 L0,8.18181818 L11.4545455,8.18181818 L11.4545455,7.36363636 C11.4545455,5.48181818 10.5545455,3.76363636 9.08181818,2.78181818 L9.08181818,2.78181818 Z M3.27272727,6.54545455 C2.78181818,6.54545455 2.45454545,6.21818182 2.45454545,5.72727273 C2.45454545,5.23636364 2.78181818,4.90909091 3.27272727,4.90909091 C3.76363636,4.90909091 4.09090909,5.23636364 4.09090909,5.72727273 C4.09090909,6.21818182 3.76363636,6.54545455 3.27272727,6.54545455 L3.27272727,6.54545455 Z M8.18181818,6.54545455 C7.69090909,6.54545455 7.36363636,6.21818182 7.36363636,5.72727273 C7.36363636,5.23636364 7.69090909,4.90909091 8.18181818,4.90909091 C8.67272727,4.90909091 9,5.23636364 9,5.72727273 C9,6.21818182 8.67272727,6.54545455 8.18181818,6.54545455 L8.18181818,6.54545455 Z" id="Shape" sketch:type="MSShapeGroup"></path>
            </g>
        </g>
    </g>
</svg>