<?xml version="1.0" encoding="UTF-8" standalone="no"?>
<svg width="20px" height="20px" viewBox="0 0 20 20" version="1.1" xmlns="http://www.w3.org/2000/svg" xmlns:xlink="http://www.w3.org/1999/xlink" xmlns:sketch="http://www.bohemiancoding.com/sketch/ns">
    <!-- Generator: Sketch 3.4.4 (17249) - http://www.bohemiancoding.com/sketch -->
    <title>status</title>
    <desc>Created with Sketch.</desc>
    <defs></defs>
    <g id="Page-1" stroke="none" stroke-width="1" fill="none" fill-rule="evenodd" sketch:type="MSPage">
        <g id="status" sketch:type="MSArtboardGroup" stroke="#B5BCD1" stroke-width="0.5" fill="#B5BCD1">
            <path d="M17.6720728,4 C18.4054589,4 19,4.59454114 19,5.32792722 C19,6.06131329 18.4054589,6.65585443 17.6720728,6.65585443 C17.510087,6.65585443 17.3552215,6.62559335 17.2128165,6.57219146 L13.5227453,12.0512263 C13.7363528,12.2861946 13.8698576,12.5994858 13.8698576,12.944818 C13.8698576,13.6782041 13.2753165,14.2727453 12.5419304,14.2727453 C11.8085443,14.2727453 11.2122231,13.6782041 11.2122231,12.944818 C11.2122231,12.7027294 11.2780854,12.4784415 11.3902294,12.2826345 L8.04193038,9.10166139 C7.83544304,9.23516614 7.5897943,9.31348892 7.32456487,9.31348892 C7.12519778,9.31348892 6.93829114,9.26720728 6.76918513,9.18888449 L3.37816456,13.4574763 C3.55261076,13.6835443 3.65763449,13.9647943 3.65763449,14.2727453 C3.65763449,15.0061313 3.06309335,15.6006725 2.32792722,15.6006725 C1.59454114,15.6006725 1,15.0061313 1,14.2727453 C1,13.5393592 1.59454114,12.944818 2.32792722,12.944818 C2.5272943,12.944818 2.71598101,12.9893196 2.88508703,13.0676424 L6.27610759,8.79905063 C6.10166139,8.57298259 5.99663766,8.29173259 5.99663766,7.98378165 C5.99663766,7.25039557 6.5911788,6.65585443 7.32456487,6.65585443 C8.05795095,6.65585443 8.65249209,7.25039557 8.65249209,7.98378165 C8.65249209,8.22587025 8.58840981,8.45015823 8.47626582,8.64418513 L11.8227848,11.8269383 C12.0310522,11.6934335 12.2767009,11.6151108 12.5419304,11.6151108 C12.7021361,11.6151108 12.8570016,11.6453718 13.0011867,11.6987737 L16.6912579,6.22151899 C16.4758703,5.98477057 16.3441456,5.67147943 16.3441456,5.32792722 C16.3441456,4.59454114 16.9386867,4 17.6720728,4" id="Fill-53" sketch:type="MSShapeGroup"></path>
        </g>
    </g>
</svg>