<?xml version="1.0" encoding="UTF-8" standalone="no"?>
<svg width="20px" height="20px" viewBox="0 0 20 20" version="1.1" xmlns="http://www.w3.org/2000/svg" xmlns:xlink="http://www.w3.org/1999/xlink" xmlns:sketch="http://www.bohemiancoding.com/sketch/ns">
    <!-- Generator: Sketch 3.4.4 (17249) - http://www.bohemiancoding.com/sketch -->
    <title>storage</title>
    <desc>Created with Sketch.</desc>
    <defs></defs>
    <g id="Page-1" stroke="none" stroke-width="1" fill="none" fill-rule="evenodd" sketch:type="MSPage">
        <g id="storage" sketch:type="MSArtboardGroup" fill="#B5BCD1">
            <g sketch:type="MSLayerGroup" transform="translate(1.000000, 4.000000)" id="Shape">
                <path d="M0,12.6 L18,12.6 L18,9 L0,9 L0,12.6 L0,12.6 Z M1.8,9.9 L3.6,9.9 L3.6,11.7 L1.8,11.7 L1.8,9.9 L1.8,9.9 Z M0,0 L0,3.6 L18,3.6 L18,0 L0,0 L0,0 Z M3.6,2.7 L1.8,2.7 L1.8,0.9 L3.6,0.9 L3.6,2.7 L3.6,2.7 Z M0,8.1 L18,8.1 L18,4.5 L0,4.5 L0,8.1 L0,8.1 Z M1.8,5.4 L3.6,5.4 L3.6,7.2 L1.8,7.2 L1.8,5.4 L1.8,5.4 Z" sketch:type="MSShapeGroup"></path>
            </g>
        </g>
    </g>
</svg>